<svg id="visual" viewBox="0 0 960 540" width="100%" height="100%" xmlns="http://www.w3.org/2000/svg" xmlns:xlink="http://www.w3.org/1999/xlink" version="1.1"><rect x="0" y="0" width="960" height="540" fill="#ffffff"></rect><path d="M0 374L22.8 368.3C45.7 362.7 91.3 351.3 137 351.3C182.7 351.3 228.3 362.7 274 373C319.7 383.3 365.3 392.7 411.2 389.2C457 385.7 503 369.3 548.8 358.3C594.7 347.3 640.3 341.7 686 347.8C731.7 354 777.3 372 823 370C868.7 368 914.3 346 937.2 335L960 324L960 541L937.2 541C914.3 541 868.7 541 823 541C777.3 541 731.7 541 686 541C640.3 541 594.7 541 548.8 541C503 541 457 541 411.2 541C365.3 541 319.7 541 274 541C228.3 541 182.7 541 137 541C91.3 541 45.7 541 22.8 541L0 541Z" fill="#6995fa"></path><path d="M0 413L22.8 404.3C45.7 395.7 91.3 378.3 137 368.5C182.7 358.7 228.3 356.3 274 356.5C319.7 356.7 365.3 359.3 411.2 372C457 384.7 503 407.3 548.8 411.2C594.7 415 640.3 400 686 397C731.7 394 777.3 403 823 406.8C868.7 410.7 914.3 409.3 937.2 408.7L960 408L960 541L937.2 541C914.3 541 868.7 541 823 541C777.3 541 731.7 541 686 541C640.3 541 594.7 541 548.8 541C503 541 457 541 411.2 541C365.3 541 319.7 541 274 541C228.3 541 182.7 541 137 541C91.3 541 45.7 541 22.8 541L0 541Z" fill="#5781ee"></path><path d="M0 439L22.8 442.3C45.7 445.7 91.3 452.3 137 447.2C182.7 442 228.3 425 274 420.8C319.7 416.7 365.3 425.3 411.2 425C457 424.7 503 415.3 548.8 417.2C594.7 419 640.3 432 686 439.8C731.7 447.7 777.3 450.3 823 442.5C868.7 434.7 914.3 416.3 937.2 407.2L960 398L960 541L937.2 541C914.3 541 868.7 541 823 541C777.3 541 731.7 541 686 541C640.3 541 594.7 541 548.8 541C503 541 457 541 411.2 541C365.3 541 319.7 541 274 541C228.3 541 182.7 541 137 541C91.3 541 45.7 541 22.8 541L0 541Z" fill="#466ee2"></path><path d="M0 467L22.8 467.2C45.7 467.3 91.3 467.7 137 468.7C182.7 469.7 228.3 471.3 274 465.7C319.7 460 365.3 447 411.2 446.5C457 446 503 458 548.8 464.8C594.7 471.7 640.3 473.3 686 469.8C731.7 466.3 777.3 457.7 823 455.3C868.7 453 914.3 457 937.2 459L960 461L960 541L937.2 541C914.3 541 868.7 541 823 541C777.3 541 731.7 541 686 541C640.3 541 594.7 541 548.8 541C503 541 457 541 411.2 541C365.3 541 319.7 541 274 541C228.3 541 182.7 541 137 541C91.3 541 45.7 541 22.8 541L0 541Z" fill="#355ad5"></path><path d="M0 482L22.8 483.8C45.7 485.7 91.3 489.3 137 492.5C182.7 495.7 228.3 498.3 274 498C319.7 497.7 365.3 494.3 411.2 496.7C457 499 503 507 548.8 504.2C594.7 501.3 640.3 487.7 686 483.2C731.7 478.7 777.3 483.3 823 485.2C868.7 487 914.3 486 937.2 485.5L960 485L960 541L937.2 541C914.3 541 868.7 541 823 541C777.3 541 731.7 541 686 541C640.3 541 594.7 541 548.8 541C503 541 457 541 411.2 541C365.3 541 319.7 541 274 541C228.3 541 182.7 541 137 541C91.3 541 45.7 541 22.8 541L0 541Z" fill="#2446c7"></path></svg>